<svg height="512" viewBox="0 0 64 64" width="512" xmlns="http://www.w3.org/2000/svg"><path d="m44 52h-2v4h-3v2h5z"/><path d="m35 56h2v2h-2z"/><path d="m7 33a4.834 4.834 0 0 0 1.354-.2 4.972 4.972 0 0 0 9.078.472 4.926 4.926 0 0 0 2.568.728 4.989 4.989 0 0 0 4.21-2.331 4.981 4.981 0 0 0 1.79.331 5.006 5.006 0 0 0 5 5 4.926 4.926 0 0 0 2.348-.6 4.921 4.921 0 0 0 2.652 1.5v.1a4 4 0 1 0 5.782-3.567 4.865 4.865 0 0 0 .218-1.433 5.006 5.006 0 0 0 -5-5 4.926 4.926 0 0 0 -2.348.6 4.926 4.926 0 0 0 -3.652-1.6 5 5 0 0 0 -5.071-5 7.011 7.011 0 0 0 -6.929-6 6.933 6.933 0 0 0 -5.426 2.585 5.936 5.936 0 0 0 -2.574-.585 6.008 6.008 0 0 0 -5.972 5.418 4.992 4.992 0 0 0 1.972 9.582zm-.739-7.894a1 1 0 0 0 .753-.99c0-.065-.008-.13-.014-.116a3.991 3.991 0 0 1 6.29-3.271 1 1 0 0 0 1.43-.3 4.995 4.995 0 0 1 9.28 2.583c0 .013 0 .088-.006.1a1 1 0 0 0 1.252 1 2.961 2.961 0 0 1 .754-.112 3 3 0 0 1 3 3 2.937 2.937 0 0 1 -.158.9 1 1 0 0 0 1.258 1.258 2.937 2.937 0 0 1 .9-.158 2.97 2.97 0 0 1 2.566 1.475 1 1 0 0 0 .7.474.989.989 0 0 0 .811-.224 2.962 2.962 0 0 1 1.923-.725 3 3 0 0 1 3 3 2.951 2.951 0 0 1 -.436 1.529 1 1 0 0 0 .717 1.5 1.994 1.994 0 1 1 -2.281 1.971 1.972 1.972 0 0 1 .129-.678 1 1 0 0 0 -.94-1.341h-.045c-.032 0-.113.014-.144.018a2.971 2.971 0 0 1 -2.566-1.475 1 1 0 0 0 -1.506-.25 2.962 2.962 0 0 1 -1.928.726 3 3 0 0 1 -3-3 2.937 2.937 0 0 1 .158-.9 1 1 0 0 0 -1.258-1.258 2.937 2.937 0 0 1 -.9.158 2.986 2.986 0 0 1 -1.679-.514 1 1 0 0 0 -1.5.5 2.966 2.966 0 0 1 -5.106.927 1 1 0 0 0 -1.757.5 2.979 2.979 0 0 1 -5.917-.1 1 1 0 0 0 -1.508-.752 2.951 2.951 0 0 1 -1.533.439 2.992 2.992 0 0 1 -.739-5.894z"/><path d="m18 21h2v2h-2z"/><path d="m16 25h2v2h-2z"/><path d="m61 20h-16a1 1 0 0 0 -1 1v4a1 1 0 0 0 1 1h1v18h-21a1 1 0 0 0 -1 1v4a1 1 0 0 0 1 1h.82l-1.806 10.835a1 1 0 0 0 .986 1.165h37v-41a1 1 0 0 0 -1-1zm-35 26h20v2h-20zm20 14h-19.819l1.666-10h18.153zm2 0v-12h2v-2h-2v-12h7v-2h-7v-6h12v6h-3v2h3v12h-8v2h8v12zm-2-36v-2h14v2z"/><path d="m59.782 10.433a4.865 4.865 0 0 0 .218-1.433 4.984 4.984 0 0 0 -8.5-3.549 4.959 4.959 0 0 0 -6.378-.534 5.983 5.983 0 0 0 -11.058 2.2 4.874 4.874 0 0 0 -2.419.076 4.993 4.993 0 1 0 -4.645 6.807 4.834 4.834 0 0 0 1.354-.2 4.989 4.989 0 0 0 9.4-.251 5.849 5.849 0 0 0 1.665.417 4.98 4.98 0 0 0 9.166-.006 4.971 4.971 0 0 0 2.915-1.411 4.987 4.987 0 0 0 2.5 1.351v.1a4 4 0 1 0 5.782-3.567zm-1.782 5.567a2 2 0 0 1 -2-2 1.972 1.972 0 0 1 .129-.678 1 1 0 0 0 -.94-1.341h-.045c-.032 0-.113.014-.144.018a2.994 2.994 0 0 1 -2.622-1.579 1.04 1.04 0 0 0 -1.756 0 2.979 2.979 0 0 1 -2.553 1.58c-.037-.005-.138-.015-.174-.016a1.007 1.007 0 0 0 -1 .752 2.983 2.983 0 0 1 -5.788 0 .966.966 0 0 0 -.99-.753c-.064 0-.127.009-.116.014a3.953 3.953 0 0 1 -2.4-.822 1 1 0 0 0 -1.6.8v.064a2.989 2.989 0 0 1 -5.963.277 1 1 0 0 0 -1.508-.752 2.951 2.951 0 0 1 -1.53.436 3 3 0 1 1 2.963-3.316 1 1 0 0 0 1.508.752 2.917 2.917 0 0 1 3.071.006 1 1 0 0 0 1.51-.972l-.022-.17a2.076 2.076 0 0 1 -.03-.3 3.987 3.987 0 0 1 7.826-1.089 1 1 0 0 0 1.767.319 2.968 2.968 0 0 1 5.029.349 1.04 1.04 0 0 0 1.756 0 2.987 2.987 0 0 1 5.622 1.421 2.951 2.951 0 0 1 -.436 1.529 1 1 0 0 0 .717 1.5 1.993 1.993 0 0 1 -.281 3.971z"/><path d="m44 10h2v2h-2z"/><path d="m39 18h2v2h-2z"/><path d="m27 40h2v2h-2z"/><path d="m32 21h2v2h-2z"/><path d="m39 25h2v2h-2z"/><path d="m11 13h2v2h-2z"/><path d="m4 35h2v2h-2z"/></svg>